<svg width="243" height="242" viewBox="0 0 243 242" fill="none" xmlns="http://www.w3.org/2000/svg">
<path d="M114.003 147.071C97.0028 142.371 80.6028 131.671 67.1028 116.671C57.2028 105.571 55.0526 97.2707 57.6028 96.2706C60.1531 95.2705 63.5028 97.9706 70.8028 105.171C87.9844 122.117 110.313 137.599 136.003 134.971C151.153 133.421 162.203 126.771 174.203 107.871C179.803 99.1706 182.803 102.371 180.903 112.671C178.403 126.171 165.803 139.671 150.003 145.771C141.203 149.171 123.703 149.771 114.003 147.071Z" fill="#211244"/>
<path d="M74.9994 81.3706C68.2994 79.0706 65.2994 75.4706 61.9994 69.9706C58.3994 63.6706 61.2028 60.3706 65.9028 65.3706C67.2028 66.6706 70.5028 68.7706 73.3028 69.9706C80.0028 72.8706 88.9028 72.3706 97.9028 68.5706C105.703 65.2706 108.403 65.4706 108.803 69.2706C109.303 73.3706 103.003 79.2706 96.0028 81.3706C89.1028 83.4706 81.4994 83.6706 74.9994 81.3706Z" fill="#211244"/>
<path d="M145.999 78.5002C137.999 75.5002 134.203 68.2208 136.003 64.8706C137.803 61.5203 140.453 62.3093 145.503 65.4593C150.553 68.6093 153.499 68.884 157.999 68.884C162.499 68.884 172.333 66.4291 177.499 62C180.999 58.9997 185.053 58.8701 185.003 61.2706C184.953 63.671 182.903 68.5706 176.303 73.5706C169.703 78.5706 153.999 81.5002 145.999 78.5002Z" fill="#211244"/>
<path d="M100.479 240.463C73.9786 235.663 54.1786 225.463 35.8786 207.063C17.4786 188.663 5.67862 166.263 1.47862 142.163C-0.721375 129.563 -0.421377 108.963 2.07862 96.6634C12.0786 47.4634 48.8786 11.4634 99.1786 1.86343C113.779 -0.936571 134.979 -0.536573 147.579 2.76343C197.379 15.8634 232.079 52.7634 240.479 101.363C251.479 165.963 206.479 229.063 141.279 240.463C130.979 242.263 110.179 242.263 100.479 240.463ZM145.979 228.163C166.379 222.763 182.279 213.763 196.679 199.363C230.179 166.063 238.279 115.163 216.779 72.4634C204.579 48.0634 183.579 29.6634 156.579 19.4634C135.579 11.5634 108.779 10.9634 87.7786 17.9634C70.0786 23.8634 57.0786 31.7634 43.6786 44.8634C21.7786 66.1634 10.8786 91.6634 10.8786 121.963C10.8786 153.563 22.1786 179.663 45.3786 201.763C61.0786 216.663 78.3786 225.463 99.4786 229.463C110.879 231.563 135.879 230.863 145.979 228.163Z" fill="#512DA8"/>
</svg>
