<svg width="72" height="72" viewBox="0 0 72 72" fill="none" xmlns="http://www.w3.org/2000/svg">
<circle cx="36" cy="36" r="35" fill="#D9CFF2"/>
<path d="M33.8993 43.7904C28.8442 42.3909 23.9676 39.205 19.9533 34.7387C17.0095 31.4337 16.3701 28.9624 17.1284 28.6646C17.8868 28.3669 18.8828 29.1708 21.0535 31.3146C26.1625 36.3603 32.8019 40.9702 40.4411 40.1876C44.946 39.7261 48.2318 37.746 51.8 32.1185C53.4652 29.5281 54.3573 30.4809 53.7923 33.5477C53.0489 37.5674 49.3023 41.587 44.604 43.4033C41.9873 44.4156 36.7836 44.5943 33.8993 43.7904Z" fill="#211244"/>
<path d="M22.3014 24.2282C20.3091 23.5433 19.417 22.4714 18.4358 20.8338C17.3653 18.958 18.1989 17.9754 19.5965 19.4642C19.9831 19.8512 20.9643 20.4765 21.7969 20.8338C23.7892 21.6973 26.4357 21.5484 29.1119 20.417C31.4312 19.4344 32.2341 19.4939 32.353 20.6254C32.5017 21.8462 30.6284 23.6029 28.5469 24.2282C26.4951 24.8534 24.2342 24.913 22.3014 24.2282Z" fill="#211244"/>
<path d="M43.4136 23.3735C41.0348 22.4803 39.9058 20.3128 40.4411 19.3153C40.9764 18.3177 41.7643 18.5526 43.266 19.4906C44.7676 20.4285 45.6438 20.5103 46.9819 20.5103C48.32 20.5103 51.2439 19.7793 52.7803 18.4606C53.821 17.5672 55.0263 17.5286 55.0115 18.2434C54.9966 18.9581 54.387 20.4169 52.4245 21.9057C50.4619 23.3945 45.7924 24.2668 43.4136 23.3735Z" fill="#211244"/>
<path d="M29.8778 71.598C21.9979 70.1688 16.1103 67.1318 10.6687 61.6532C5.19736 56.1746 1.68857 49.505 0.439677 42.3292C-0.214505 38.5775 -0.125298 32.4439 0.618089 28.7816C3.59164 14.1322 14.5343 3.41324 29.4913 0.554836C33.8326 -0.278864 40.1366 -0.159765 43.8833 0.822811C58.6915 4.72334 69.0098 15.7103 71.5075 30.181C74.7784 49.4156 61.3975 68.2037 42.0099 71.598C38.9472 72.134 32.7622 72.134 29.8778 71.598ZM43.4075 67.9357C49.4735 66.3279 54.2015 63.6481 58.4834 59.3605C68.4448 49.4454 70.8533 34.2899 64.4602 21.576C60.8325 14.3109 54.588 8.83229 46.5594 5.79524C40.315 3.44301 32.3459 3.26436 26.1014 5.34861C20.8382 7.10534 16.9726 9.45757 12.9881 13.3581C6.47598 19.7002 3.23481 27.2928 3.23481 36.3146C3.23481 45.7235 6.59493 53.4948 13.4936 60.0751C18.162 64.5116 23.3063 67.1318 29.5805 68.3228C32.9703 68.9481 40.4042 68.7396 43.4075 67.9357Z" fill="#512DA8"/>
</svg>
